<svg width="100" height="100" viewBox="0 0 100 100" fill="none" xmlns="http://www.w3.org/2000/svg">
<rect width="100" height="100" fill="#182639"/>
<path d="M38.3557 20C37.379 23.0279 36.8515 26.2573 36.8515 29.6102C36.8515 46.8836 50.8545 60.8866 68.1279 60.8866C72.532 60.8866 76.7234 59.9763 80.5243 58.3338C76.4693 70.9055 64.6729 80 50.7521 80C33.4787 80 19.4757 65.997 19.4757 48.7236C19.4757 35.8542 27.2486 24.8 38.3557 20Z" fill="#2F97FF" fill-opacity="0.25"/>
<path d="M64.0628 24.3974H80.291L62.9152 38.2981H80.291" fill="#2F97FF" fill-opacity="0.25"/>
<path d="M64.0628 24.3974H80.291L62.9152 38.2981H80.291M38.3557 20C37.379 23.0279 36.8515 26.2573 36.8515 29.6102C36.8515 46.8836 50.8545 60.8866 68.1279 60.8866C72.532 60.8866 76.7234 59.9763 80.5243 58.3338C76.4693 70.9055 64.6729 80 50.7521 80C33.4787 80 19.4757 65.997 19.4757 48.7236C19.4757 35.8542 27.2486 24.8 38.3557 20Z" stroke="#2F88FF" stroke-width="6" stroke-linecap="round" stroke-linejoin="round"/>
</svg>
