<svg width="100" height="100" viewBox="0 0 100 100" fill="none" xmlns="http://www.w3.org/2000/svg">
<rect width="100" height="100" fill="#152E1E"/>
<g clip-path="url(#clip0_3_2)">
<path d="M49.9998 20C33.4313 20 19.9993 33.4315 19.9993 50C19.9993 66.569 33.4313 80 49.9998 80C66.5701 80 80.0007 66.5694 80.0007 50C80.0007 33.4324 66.5701 20.0014 49.9993 20.0014L49.9998 19.9996V20ZM63.758 63.269C63.2207 64.1502 62.0673 64.4301 61.1857 63.8887C54.1421 59.5861 45.2747 58.6119 34.8317 60.9978C33.8255 61.2269 32.8224 60.5964 32.5929 59.5897C32.3625 58.5831 32.9907 57.58 33.9996 57.3509C45.4277 54.74 55.2303 55.8641 63.1383 60.6968C64.0199 61.2377 64.2993 62.3875 63.758 63.269ZM67.4301 55.1004C66.7528 56.2007 65.3128 56.5481 64.2129 55.8713C56.1487 50.9144 43.8567 49.4789 34.3182 52.3747C33.0812 52.7482 31.7748 52.0512 31.3995 50.8163C31.0269 49.5792 31.7244 48.2756 32.9592 47.8994C43.8544 44.5936 57.3993 46.1947 66.6601 51.8856C67.7599 52.5628 68.1073 54.0029 67.4305 55.1013V55.1009L67.4301 55.1004ZM67.7455 46.5943C58.0761 40.8513 42.1237 40.3234 32.8922 43.1252C31.4098 43.5747 29.842 42.7382 29.3929 41.2554C28.9438 39.7722 29.7799 38.2057 31.2631 37.7552C41.8604 34.5381 59.477 35.1595 70.6094 41.7684C71.9455 42.56 72.3829 44.2817 71.5909 45.6133C70.8024 46.9467 69.0758 47.3863 67.7469 46.5943H67.7455Z" fill="#1ED760"/>
</g>
<defs>
<clipPath id="clip0_3_2">
<rect width="60.0013" height="60" fill="white" transform="translate(19.9993 20)"/>
</clipPath>
</defs>
</svg>
